<svg xmlns="http://www.w3.org/2000/svg" xmlns:xlink="http://www.w3.org/1999/xlink" version="1.1" id="Layer_1" x="0px" y="0px" viewBox="90.5 261.774 240 76.726" enable-background="new 90.5 261.774 240 76.726" xml:space="preserve" xmlns:svg="http://www.w3.org/2000/svg" width="100%" height="100%"><rect id="svgEditorBackground" x="90.5" y="261.77398681640625" width="240" height="76.72599792480469" style="fill: none; stroke: none;"/>
<g id="bg">
	<g id="Layer_3">
		<rect x="90.5" y="261.774" width="240" height="76.726" style="fill: none;"/>
	</g>
</g>
<g id="logo">
	<path fill="#FFFFFF" d="M148.473,272.071v39.835h46.208c2.2,0,4.156-3.521,4.156-3.521v-6.603c0-1.871-2.078-3.081-3.423-3.081   s-31.539,0-31.539,0v-26.63H148.473L148.473,272.071z"/>
	<ellipse cx="192.063" cy="304.893" rx="3.307" ry="2.629" fill="#5C6979"/>
	<path fill="#FFFFFF" d="M258.097,272.071v26.63c0,0-30.194,0-31.539,0s-3.423,1.21-3.423,3.081v6.603c0,0,1.956,3.521,4.156,3.521   H273.5v-39.835H258.097z"/>
	<ellipse cx="229.91" cy="304.893" rx="3.307" ry="2.629" fill="#5C6979"/>
	<path fill="#FFFFFF" d="M160.634,272.071"/>
	<g id="Layer_5">
	</g>
	<path fill="#FFFFFF" d="M173.734,296.641c0.787-1.072,1.336-1.999,2.07-2.785c2.217-2.378,4.397-4.798,6.81-7.009   c1.393-1.276,3.198-2.191,4.842-3.237c0.292-0.186,0.7-0.291,1.061-0.308c3.598-0.177,7.196-0.396,10.798-0.472   c6.25-0.132,12.511-0.379,18.752-0.188c5.13,0.157,10.267,0.722,15.34,1.45c1.53,0.22,3.08,1.395,4.229,2.471   c2.332,2.182,4.408,4.586,6.565,6.917c0.641,0.693,1.218,1.436,1.789,2.178c0.174,0.227,0.229,0.528,0.328,0.77   c-1.819,0-3.531,0.056-5.237-0.015c-1.895-0.078-3.786-0.403-5.676-0.387c-3.375,0.029-6.599-0.472-9.827-1.374   c-3.796-1.061-7.771-1.348-11.743-1.408c-2.76-0.041-5.528-0.091-8.282,0.034c-4.251,0.193-8.445,0.744-12.536,1.899   c-1.343,0.379-2.811,0.448-4.231,0.546c-1.984,0.137-3.982,0.116-5.965,0.26c-2.22,0.162-4.429,0.449-6.646,0.646   C175.475,296.694,174.764,296.641,173.734,296.641z"/>
	<path fill="#FFFFFF" d="M246.318,313.444c-0.787,1.072-1.336,1.999-2.07,2.785c-2.217,2.378-4.397,4.798-6.81,7.009   c-1.393,1.276-3.198,2.191-4.842,3.237c-0.292,0.186-0.7,0.291-1.061,0.308c-3.598,0.177-7.196,0.396-10.798,0.472   c-6.25,0.133-12.511,0.379-18.752,0.188c-5.13-0.157-10.267-0.722-15.34-1.45c-1.53-0.22-3.08-1.395-4.229-2.471   c-2.332-2.182-4.408-4.586-6.565-6.917c-0.641-0.693-1.218-1.436-1.789-2.178c-0.174-0.227-0.229-0.528-0.328-0.77   c1.819,0,3.531-0.056,5.237,0.015c1.895,0.079,3.786,0.403,5.676,0.387c3.375-0.029,6.599,0.472,9.827,1.374   c3.796,1.061,7.771,1.348,11.743,1.408c2.76,0.041,5.528,0.091,8.282-0.034c4.251-0.193,8.445-0.744,12.536-1.899   c1.343-0.379,2.811-0.448,4.231-0.546c1.984-0.137,3.982-0.116,5.965-0.26c2.22-0.162,4.429-0.449,6.646-0.646   C244.577,313.391,245.289,313.444,246.318,313.444z"/>
</g>
</svg>